<svg width="54" height="48" viewBox="0 0 54 48" fill="none" xmlns="http://www.w3.org/2000/svg">
<path d="M18.5066 38.9506C18.9436 38.5136 19.4036 37.8005 20.8066 37.8005C22.2097 37.8005 36.654 37.8005 38.057 37.8005C39.3335 37.8005 46.3602 30.7509 47.2572 29.7504C48.1197 28.7844 51.9493 23.0342 53.0073 20.5502C52.3403 19.6532 50.5348 18.9057 48.4072 19.4002C46.3717 19.8717 45.1757 21.3322 43.8071 24.0003L38.54 26.7373" stroke="white" stroke-width="2" stroke-miterlimit="10" stroke-linejoin="round"/>
<path d="M25.406 30.9005C25.406 30.9005 34.6062 30.9005 35.7562 30.9005C40.3563 30.9005 40.3563 25.1504 35.7562 25.1504C34.6062 25.1504 31.7311 25.1504 28.5341 25.1504C27.5796 25.1504 25.774 22.8503 24.256 22.8503C23.5775 22.8503 20.0584 22.8503 18.5059 22.8503C16.9533 22.8503 15.0213 24.1154 13.9058 25.1504C12.1807 26.8754 9.30566 29.7505 9.30566 29.7505" stroke="white" stroke-width="2" stroke-miterlimit="10" stroke-linejoin="round"/>
<path d="M6.99688 27.451L1.24768 33.2002L15.0474 46.9999L20.7966 41.2507L6.99688 27.451Z" stroke="white" stroke-width="2" stroke-miterlimit="10" stroke-linejoin="round"/>
<path d="M7.00574 33.2006L9.30579 35.5007" stroke="white" stroke-width="2" stroke-miterlimit="10" stroke-linejoin="round"/>
<path d="M49.5564 19.4004V1H17.3557V22.8505" stroke="white" stroke-width="2" stroke-miterlimit="10"/>
<path d="M38.056 1V5.6001H28.8558V1" stroke="white" stroke-width="2" stroke-miterlimit="10"/>
<path d="M20.8058 18.2503H23.1058" stroke="white" stroke-width="2" stroke-miterlimit="10"/>
<path d="M24.2557 18.2503H26.5558" stroke="white" stroke-width="2" stroke-miterlimit="10"/>
<path d="M27.7058 18.2503H30.0059" stroke="white" stroke-width="2" stroke-miterlimit="10"/>
</svg>

