<svg width="22" height="23" viewBox="0 0 22 23" fill="none" xmlns="http://www.w3.org/2000/svg">
<path d="M6.53836 5.20833V4.6875C6.53836 2.10174 8.63835 0 11.2259 0C13.8144 0 15.9134 2.10006 15.9134 4.6875V5.20833H17.5941C18.9937 5.20833 20.2115 6.30534 20.3536 7.6997L21.6289 20.2141C21.7789 21.6856 20.6689 22.9167 19.1921 22.9167H3.25966C1.77976 22.9167 0.672489 21.6899 0.822889 20.2141L2.09823 7.6997C2.23993 6.30933 3.46058 5.20833 4.85772 5.20833H6.53836ZM6.53836 7.29167H4.85772C4.52874 7.29167 4.2041 7.58449 4.17083 7.91092L2.89549 20.4253C2.87017 20.6737 3.01424 20.8333 3.25966 20.8333H19.1921C19.4339 20.8333 19.5812 20.6699 19.5563 20.4253L18.281 7.91092C18.2473 7.58106 17.9261 7.29167 17.5941 7.29167H15.9134V9.375C15.9134 9.9503 15.447 10.4167 14.8717 10.4167C14.2964 10.4167 13.83 9.9503 13.83 9.375V7.29167H8.6217V9.375C8.6217 9.9503 8.15533 10.4167 7.58003 10.4167C7.00473 10.4167 6.53836 9.9503 6.53836 9.375V7.29167ZM13.83 5.20833V4.24679C13.83 3.05259 12.6639 2.08333 11.2259 2.08333C9.78836 2.08333 8.6217 3.05337 8.6217 4.24679V5.20833H13.83Z" fill="#E6E8EC"/>
</svg>

