<svg width="20" height="24" viewBox="0 0 20 24" fill="none" xmlns="http://www.w3.org/2000/svg">
<path fill-rule="evenodd" clip-rule="evenodd" d="M19.7825 18.8923C19.7825 22.7376 14.3208 23.1821 10.2137 23.1821L9.91979 23.1819C7.30307 23.1758 0.642487 23.0162 0.642487 18.869C0.642487 15.1021 5.88466 14.5987 9.96053 14.5797L10.5076 14.5794C13.1241 14.5855 19.7825 14.745 19.7825 18.8923ZM10.2137 16.3291C5.06499 16.3291 2.45499 17.1831 2.45499 18.869C2.45499 20.57 5.06499 21.4321 10.2137 21.4321C15.3612 21.4321 17.97 20.5781 17.97 18.8923C17.97 17.1913 15.3612 16.3291 10.2137 16.3291ZM10.2137 0C13.7517 0 16.6287 2.779 16.6287 6.195C16.6287 9.611 13.7517 12.3888 10.2137 12.3888H10.175C6.64428 12.3783 3.78415 9.59817 3.7962 6.1915C3.7962 2.779 6.67449 0 10.2137 0ZM10.2137 1.666C7.62665 1.666 5.52171 3.69717 5.52171 6.195C5.51328 8.68467 7.60249 10.7147 10.1787 10.724L10.2137 11.557V10.724C12.7995 10.724 14.9032 8.69167 14.9032 6.195C14.9032 3.69717 12.7995 1.666 10.2137 1.666Z" fill="#E6E8EC"/>
</svg>

